HIERARCHY
ROOT Hips
{
  OFFSET -15.0391 94.7654 -12.5711
  CHANNELS 6 Xposition Yposition Zposition Zrotation Xrotation Yrotation
  JOINT ToSpine
  {
    OFFSET -2.69724 7.43032 -0.144315
    CHANNELS 3 Zrotation Xrotation Yrotation
    JOINT Spine
    {
      OFFSET -0.0310711 10.7595 1.96963
      CHANNELS 3 Zrotation Xrotation Yrotation
      JOINT Spine1
      {
        OFFSET 13.1342 3.43533 0.764692
        CHANNELS 3 Zrotation Xrotation Yrotation
        JOINT Neck
        {
          OFFSET 29.8703 7.82586 -0.130764
          CHANNELS 3 Zrotation Xrotation Yrotation
          JOINT Head
          {
            OFFSET 9.52751 0.295786 -0.907742
            CHANNELS 3 Zrotation Xrotation Yrotation
            End Site
            {
              OFFSET 16.4037 0.713936 2.7358
            }
          }
        }
        JOINT LeftShoulder
        {
          OFFSET 27.5574 4.95586 2.47156
          CHANNELS 3 Zrotation Xrotation Yrotation
          JOINT LeftArm
          {
            OFFSET 1.20734 -0.998971 20.1238
            CHANNELS 3 Zrotation Xrotation Yrotation
            JOINT LeftForeArm
            {
              OFFSET 26.8049 -0.0536703 -0.155908
              CHANNELS 3 Zrotation Xrotation Yrotation
              JOINT LeftHand
              {
                OFFSET 26.6817 0 0.320147
                CHANNELS 3 Zrotation Xrotation Yrotation
                End Site
                {
                  OFFSET 18.6119 0 0.382219
                }
              }
            }
          }
        }
        JOINT RightShoulder
        {
          OFFSET 27.5927 4.71444 -2.65209
          CHANNELS 3 Zrotation Xrotation Yrotation
          JOINT RightArm
          {
            OFFSET 2.83739 -1.17114 -18.7564
            CHANNELS 3 Zrotation Xrotation Yrotation
            JOINT RightForeArm
            {
              OFFSET 28.839 -0.0548439 1.22491
              CHANNELS 3 Zrotation Xrotation Yrotation
              JOINT RightHand
              {
                OFFSET 26.5114 0 -0.101894
                CHANNELS 3 Zrotation Xrotation Yrotation
                End Site
                {
                  OFFSET 18.2168 0 0
                }
              }
            }
          }
        }
      }
    }
  }
  JOINT LeftUpLeg
  {
    OFFSET -4.76168 -1.9167 -10.2353
    CHANNELS 3 Zrotation Xrotation Yrotation
    JOINT LeftLeg
    {
      OFFSET 2.55951 -42.0585 -8.02213
      CHANNELS 3 Zrotation Xrotation Yrotation
      JOINT LeftFoot
      {
        OFFSET 3.16357 -42.5282 -3.95426
        CHANNELS 3 Zrotation Xrotation Yrotation
        JOINT LeftToeBase
        {
          OFFSET 0.346054 -6.02161 12.8035
          CHANNELS 3 Zrotation Xrotation Yrotation
          End Site
          {
            OFFSET 0.134235 -1.35082 5.13018
          }
        }
      }
    }
  }
  JOINT RightUpLeg
  {
    OFFSET -4.94151 -1.41743 10.6446
    CHANNELS 3 Zrotation Xrotation Yrotation
    JOINT RightLeg
    {
      OFFSET -2.56294 -42.0364 -7.94377
      CHANNELS 3 Zrotation Xrotation Yrotation
      JOINT RightFoot
      {
        OFFSET -3.0952 -42.555 -4.02241
        CHANNELS 3 Zrotation Xrotation Yrotation
        JOINT RightToeBase
        {
          OFFSET -0.0828122 -6.13587 12.8035
          CHANNELS 3 Zrotation Xrotation Yrotation
          End Site
          {
            OFFSET -0.131328 -1.35082 5.13018
          }
        }
      }
    }
  }
}
MOTION
Frames:	10
Frame Time:	0.0333333
-22.2166 100.081 50.2548 73.1168 -18.6468 -4.76103 -70.1915 0 88.8779 113.143 70.1793 -27.9716 -8.63839 21.3274 3.98742 -145.869 38.0301 172.327 -177.891 77.7281 -151.039 0.990702 -6.06854 -6.88384 -104.122 4.46336 -119.343 13.3511 4.65858 -70.7565 0.420957 0.00057489 0.358661 0.240066 2.50031 10.1492 -168.74 11.9624 81.6926 7.22457 -2.68752 69.8382 0.58676 0.00033045 0.0646655 -46.9966 9.56259 92.9172 -3.62424 38.848 -19.419 -11.4214 -0.0968937 1.3887 2.89766 -7.44352 4.52318 -50.1366 -14.5699 77.5678 1.61881 28.554 2.37677 4.89755 19.3068 -2.74173 1.18286 -11.1984 3.71574 
-23.0232 101.296 52.2633 72.8328 -24.8023 -5.48905 -70.1915 0 88.8779 125.398 72.1561 -33.4463 -8.0024 26.9302 -1.82565 -146.052 39.5946 172.297 176.562 79.0629 -147.611 0.951863 -7.36316 -4.63642 -102.469 6.07445 -120.139 11.931 2.27644 -76.6875 0.420957 0.00057489 0.358661 1.07363 10.9042 1.61325 -125.275 2.46142 84.6364 5.51951 -5.52417 45.4112 0.58676 0.00033045 0.0646655 -47.9488 7.05441 97.1954 -3.77883 36.4936 -24.0365 -14.6225 0.29641 1.89099 4.9123 -11.3137 4.74782 -49.0662 -12.7213 78.4404 1.48221 26.5825 14.8406 8.28998 21.5838 -4.10693 0.108357 -5.3647 4.50812 
-23.6736 101.94 55.418 72.3971 -27.6124 -4.96321 -70.1915 0 88.8779 118.385 74.3309 -24.8546 -4.20993 27.5386 -2.19927 -145.339 40.4888 170.785 176.915 80.167 -148.547 0.963575 -6.34753 -5.9724 -101.238 4.37616 -118.948 10.8197 0.992133 -84.2453 0.420957 0.00057489 0.358661 2.29818 15.0996 -5.01736 -75.3114 -6.50113 103.928 0.792004 -1.01745 41.4108 0.58676 0.00033045 0.0646655 -48.7578 6.28759 99.9864 -3.47509 33.9666 -22.1198 -17.9268 2.52744 2.83652 4.20111 -9.79342 3.6336 -48.7628 -10.7729 79.3709 0.908198 25.1746 19.63 7.02329 20.3934 -3.58332 1.19158 -5.57001 -5.71036 
-23.9324 101.778 59.0417 73.2531 -26.6882 -3.0719 -70.1915 0 88.8779 109.712 74.4395 -15.953 -2.39624 26.527 -2.16105 -140.89 40.9853 164.704 -169.436 81.7302 -162.815 0.936936 -6.67442 -4.88756 -99.1567 2.75421 -119.051 9.73797 0.51741 -89.6438 0.420957 0.00057489 0.358661 3.52048 17.4821 -10.6027 -64.7146 -17.6569 129.331 4.7709 -5.82573 39.8555 0.58676 0.00033045 0.0646655 -50.5756 5.49451 99.7369 -2.62876 31.954 -13.6301 -14.5416 4.44778 2.77425 3.47068 -6.8058 -2.62726 -49.5791 -11.2102 79.2004 1.19058 24.7906 4.8219 -3.16797 18.9271 -0.362406 0.190181 -2.64145 0.779314 
-24.0031 101.055 62.6794 74.4393 -24.1574 -0.32413 -70.1915 0 88.8779 105.995 75.1903 -13.3561 -1.90406 26.104 0.743788 -140.987 43.1684 160.103 -143.957 83.7494 169.121 0.953961 -5.88999 -5.97424 -97.6548 2.0195 -124.511 9.877 -0.127325 -89.8622 0.420957 0.00057489 0.358661 0.80392 18.2795 6.47909 -62.9546 -17.8656 137.512 6.12495 -6.61358 43.2685 0.58676 0.00033045 0.0646655 -52.2118 6.45699 98.6399 -1.88669 31.1159 -6.86847 -9.64416 -0.0150454 1.13023 1.70976 -2.25697 -4.15267 -53.0502 -11.7391 77.9011 2.16624 21.2462 -5.39538 -4.16392 20.6225 -0.172501 -1.0344 1.9106 4.02644 
-24.5588 99.6807 66.4063 74.2799 -20.2649 1.77332 -70.1915 0 88.8779 104.492 76.2538 -13.595 -2.88711 25.8154 4.90466 -147.08 46.6229 162.317 -114.676 84.8723 136.494 0.978567 -7.656 -5.40016 -97.1422 2.60441 -127.789 9.84777 -0.663456 -92.1385 0.420957 0.00057489 0.358661 -1.82654 13.2755 26.8404 -55.8993 -8.09246 139.278 8.02264 -7.58257 47.0614 0.58676 0.00033045 0.0646655 -51.3917 9.56239 98.767 -2.21689 32.0656 -9.52512 -5.8599 -3.54659 0.213916 2.74378 -6.54274 2.14895 -55.3851 -11.2645 77.0704 3.34046 18.5028 -2.76133 -0.654137 24.3661 -1.4529 1.1254 0.91331 -6.3632 
-25.228 97.8176 70.2795 73.4229 -14.1611 1.88378 -70.1915 0 88.8779 101.293 75.9117 -13.9492 -4.06392 24.4624 7.5784 -155.054 49.0205 168.888 -103.587 87.2788 121.789 1.01983 -8.13698 -6.98413 -96.8159 1.87975 -128.347 8.66061 -0.853696 -94.7843 0.420957 0.00057489 0.358661 -3.16368 15.7599 33.3442 -48.7706 -5.27127 141.25 10.9351 -10.1656 47.6615 0.58676 0.00033045 0.0646655 -48.4067 10.3892 98.1644 -2.71044 34.7112 -12.3823 -3.6056 -7.64827 -0.46481 3.90513 -10.0259 8.2822 -54.2881 -13.4877 75.0617 4.56443 24.2881 2.64399 0.702874 20.204 -1.62363 2.33186 -13.2087 -16.3922 
-25.7486 95.7833 73.9166 73.3446 -9.2941 1.44919 -70.1915 0 88.8779 102.012 75.887 -16.4956 -3.93657 24.9379 6.42866 -154.519 50.1723 165.112 -78.4779 86.3931 97.2556 1.0234 -8.58509 -6.8442 -95.3355 2.57735 -129.268 8.57589 -1.11876 -96.6014 0.420957 0.00057489 0.358661 -4.21315 14.6382 42.4414 -43.3228 -3.37244 140.807 11.5535 -10.4246 48.5446 0.58676 0.00033045 0.0646655 -45.3822 10.2493 96.8376 -3.02059 38.6564 -11.7798 -1.21736 -11.4482 -0.979198 4.67065 -11.8573 11.7829 -52.1631 -16.0938 70.711 3.31689 34.4019 7.73537 -1.13019 11.5545 -0.478097 2.02852 -21.6418 -20.2084 
-26.3551 94.5246 76.6389 74.1242 -7.07059 2.42982 -70.1915 0 88.8779 112.146 75.7653 -24.7013 -4.13637 26.1098 5.02894 -152.551 51.0734 163.418 -57.388 86.8884 77.958 1.05264 -9.59264 -9.8263 -92.0369 4.95175 -127.611 9.92008 -1.66241 -98.6168 0.420957 0.00057489 0.358661 -4.23988 13.4253 45.3271 -39.4829 -3.9143 139.857 12.859 -11.1833 49.6777 0.58676 0.00033045 0.0646655 -42.6949 11.3375 93.7397 -3.46191 43.4262 -11.8004 -0.183455 -12.7224 -1.09676 4.69497 -12.1233 13.6218 -51.8886 -14.7827 69.9451 2.22613 39.0632 4.09856 -4.70997 5.26046 0.578395 2.23762 -21.7146 -14.0413 
-26.4993 93.6582 78.8477 74.0495 -4.85875 3.59011 -70.1915 0 88.8779 113.354 75.8168 -24.2216 -3.34268 26.3033 4.83947 -149.328 50.7236 160.66 -59.9051 86.5914 83.0158 1.02272 -10.7013 -13.2284 -87.9266 7.62652 -124.365 11.4667 -2.35327 -100.638 0.420957 0.00057489 0.358661 -4.17074 12.5246 47.0805 -37.5085 -6.09865 136.777 14.6323 -11.7749 51.986 0.58676 0.00033045 0.0646655 -40.0156 11.5162 89.8411 -3.71911 46.4836 -10.6 1.17667 -12.6517 -1.11524 3.4558 -9.87753 11.8253 -52.4231 -13.5403 67.8429 1.82568 40.5642 0.665199 -7.05179 1.01661 1.05502 2.42281 -21.2617 -10.2957 
